<svg id="Layer_1" data-name="Layer 1" xmlns="http://www.w3.org/2000/svg" viewBox="0 0 576 576"><defs><style>.cls-1{fill:#fdfefd;}.cls-2{fill:#0f834b;}.cls-3{fill:#014823;}.cls-4{fill:#014723;}.cls-5{fill:#fcfdfc;}</style></defs><g id="Layer_2" data-name="Layer 2"><g id="Layer_1-2" data-name="Layer 1-2"><path class="cls-1" d="M576,576H0V0H576ZM172.57,402.25H60.92L174.7,516.05,287.58,403.33a37.89,37.89,0,0,1,.72,5.19q.07,51.17,0,102.32V516c.6.34,1.21.67,1.82,1L403.24,403.86V514.94l114.06-114c-.73-.63-2.06-1.65-3.23-2.82q-53-52.92-105.87-105.89a58.47,58.47,0,0,1-3.74-4.56H517.28l.78-1.43a37.67,37.67,0,0,1-4.3-3.26q-53-52.77-105.91-105.61a40.4,40.4,0,0,1-3.43-4.6H516.08L402.29,59,289.42,171.67a37.89,37.89,0,0,1-.72-5.19q-.07-51.15,0-102.32V59l-1.81-1L173.76,171.15V60.05l-114.08,114c.74.64,2.07,1.66,3.25,2.83q53,52.92,105.87,105.89a54.49,54.49,0,0,1,3.73,4.56H59.72l-.79,1.44A37.53,37.53,0,0,1,63.24,292q53,52.77,105.91,105.61A37.72,37.72,0,0,1,172.57,402.25Z"/><path class="cls-2" d="M404.46,287.65a58.47,58.47,0,0,0,3.74,4.56q52.91,53,105.87,105.89c1.17,1.17,2.5,2.19,3.23,2.82l-114.06,114V403.86L290.16,517c-.61-.33-1.22-.66-1.82-1V408.57a37.89,37.89,0,0,0-.72-5.19v-1a32.27,32.27,0,0,0,.76-4.79q.06-52.41,0-104.81a22.65,22.65,0,0,0-.75-4.17l-.15-1.29c-.74-.89-1.42-1.85-2.23-2.66Q230.77,230,176.33,175.52A12.3,12.3,0,0,0,174,174.1V287.27l-1.45.08a58.47,58.47,0,0,0-3.74-4.56Q115.9,229.8,62.94,176.9c-1.18-1.17-2.51-2.19-3.25-2.83l114.08-114v111.1L286.85,58.06l1.81,1V166.5a37.89,37.89,0,0,0,.72,5.19v1a29.86,29.86,0,0,0-.76,4.79q-.06,52.41,0,104.82a23.4,23.4,0,0,0,.74,4.16l.15,1.29c1.64,1.87,3.18,3.83,4.93,5.59q52.17,52.21,104.39,104.4c1.12,1.12,2.33,2.15,3.55,3.28.35-.59.64-.84.64-1.09q0-56.1-.08-112.21Z"/><path class="cls-3" d="M404.46,287.65l-1.45.07H289.58l-.15-1.29Q344,231.91,398.48,177.34a51.47,51.47,0,0,0,3.63-4.56h2.31a40.4,40.4,0,0,0,3.43,4.6Q460.76,230.2,513.76,283a37.67,37.67,0,0,0,4.3,3.26l-.78,1.43Z"/><path class="cls-3" d="M287.41,287.25l.15,1.29Q233,343.1,178.52,397.67a49.57,49.57,0,0,0-3.63,4.55h-2.32a38.35,38.35,0,0,0-3.42-4.6Q116.24,344.81,63.24,292a38.9,38.9,0,0,0-4.31-3.25l.79-1.44H172.54l1.46-.08Z"/><path class="cls-4" d="M404.42,172.75h-2.31l-112.66-.09v-1L402.29,59,516.08,172.8Z"/><path class="cls-4" d="M172.57,402.25h2.32l112.66.09v1L174.7,516.05,60.92,402.25Z"/><path class="cls-5" d="M289.45,172.69l112.66.09a51.47,51.47,0,0,1-3.63,4.56q-54.5,54.58-109,109.12a24.33,24.33,0,0,1-.74-4.16q-.06-52.41,0-104.82A28.69,28.69,0,0,1,289.45,172.69Z"/><path class="cls-5" d="M287.41,287.25H174V174.08a12.7,12.7,0,0,1,2.34,1.42Q230.77,230,285.18,284.59C286,285.4,286.67,286.36,287.41,287.25Z"/><path class="cls-5" d="M289.58,287.75H403q0,56.1.08,112.21c0,.25-.29.5-.64,1.09-1.22-1.13-2.43-2.16-3.55-3.28q-52.22-52.18-104.39-104.4C292.76,291.58,291.22,289.62,289.58,287.75Z"/><path class="cls-5" d="M287.55,402.31l-112.66-.09a49.57,49.57,0,0,1,3.63-4.55q54.49-54.6,109-109.13a22.65,22.65,0,0,1,.75,4.17q.06,52.4,0,104.81A32.39,32.39,0,0,1,287.55,402.31Z"/></g></g></svg>