<?xml version="1.0" standalone="no"?>
<!DOCTYPE svg PUBLIC "-//W3C//DTD SVG 20010904//EN"
 "http://www.w3.org/TR/2001/REC-SVG-20010904/DTD/svg10.dtd">
<svg version="1.0" xmlns="http://www.w3.org/2000/svg"
 width="700.000000pt" height="700.000000pt" viewBox="0 0 700.000000 700.000000"
 preserveAspectRatio="xMidYMid meet">
<metadata>
Created by potrace 1.11, written by Peter Selinger 2001-2013
</metadata>
<g transform="translate(0.000000,700.000000) scale(0.100000,-0.100000)"
fill="#000000" stroke="none">
<path d="M0 3500 l0 -3500 3500 0 3500 0 0 3500 0 3500 -3500 0 -3500 0 0
-3500z m1608 3143 c-26 -2 -71 -2 -100 0 -29 2 -8 3 47 3 55 0 79 -1 53 -3z
m-165 -10 c-7 -2 -19 -2 -25 0 -7 3 -2 5 12 5 14 0 19 -2 13 -5z m250 0 c-7
-2 -19 -2 -25 0 -7 3 -2 5 12 5 14 0 19 -2 13 -5z m-296 -9 c-3 -3 -12 -4 -19
-1 -8 3 -5 6 6 6 11 1 17 -2 13 -5z m340 0 c-3 -3 -12 -4 -19 -1 -8 3 -5 6 6
6 11 1 17 -2 13 -5z m-392 -14 c-27 -12 -43 -12 -25 0 8 5 22 9 30 9 10 0 8
-3 -5 -9z m443 -2 c9 -9 12 -412 12 -1754 0 -1180 3 -1744 10 -1747 6 -3 5 -4
-2 -3 -11 2 -14 345 -18 1751 -5 1736 -5 1748 -25 1756 -14 5 -15 8 -4 8 8 1
20 -4 27 -11z m-537 -38 c-29 -16 -61 -35 -69 -42 -13 -11 -14 -11 -8 0 8 14
106 72 121 72 6 0 -14 -14 -44 -30z m3955 -63 c1 -12 1 -13 -3 -2 -4 13 -35
15 -214 15 l-209 0 0 -1705 0 -1705 -1280 0 -1280 0 2 1468 3 1467 2 -1462 3
-1463 1270 0 1270 0 0 1705 0 1705 217 -2 c200 -3 218 -4 219 -21z m-4046 10
c0 -2 -24 -23 -52 -46 l-53 -43 50 46 c48 44 55 50 55 43z m969 -187 c12 -22
20 -40 17 -40 -3 0 -12 13 -20 28 -8 16 -34 53 -58 83 l-43 54 -5 -1680 -5
-1680 -2 1690 -2 1690 47 -52 c26 -29 58 -70 71 -93z m-1102 47 c-17 -23 -40
-54 -50 -67 -17 -24 -17 -24 0 8 18 34 71 102 79 102 2 0 -11 -19 -29 -43z
m4180 -39 c-3 -8 -6 -5 -6 6 -1 11 2 17 5 13 3 -3 4 -12 1 -19z m-3039 -83
c-3 -3 -9 2 -12 12 -6 14 -5 15 5 6 7 -7 10 -15 7 -18z m-1227 -22 c-12 -20
-14 -14 -5 12 4 9 9 14 11 11 3 -2 0 -13 -6 -23z m1258 -63 c0 -8 -7 1 -14 20
-18 46 -17 64 0 25 8 -16 14 -37 14 -45z m3008 8 c-3 -8 -6 -5 -6 6 -1 11 2
17 5 13 3 -3 4 -12 1 -19z m-4300 -50 c-3 -8 -6 -5 -6 6 -1 11 2 17 5 13 3 -3
4 -12 1 -19z m1300 0 c-3 -8 -6 -5 -6 6 -1 11 2 17 5 13 3 -3 4 -12 1 -19z
m-1310 -65 c-3 -10 -5 -2 -5 17 0 19 2 27 5 18 2 -10 2 -26 0 -35z m1320 10
c-3 -10 -5 -4 -5 12 0 17 2 24 5 18 2 -7 2 -21 0 -30z m2990 -55 c-3 -8 -6 -5
-6 6 -1 11 2 17 5 13 3 -3 4 -12 1 -19z m-4310 -125 c-3 -10 -5 -2 -5 17 0 19
2 27 5 18 2 -10 2 -26 0 -35z m4310 -35 c-3 -8 -6 -5 -6 6 -1 11 2 17 5 13 3
-3 4 -12 1 -19z m-4300 -20 c-3 -7 -5 -2 -5 12 0 14 2 19 5 13 2 -7 2 -19 0
-25z m32 -93 c0 -5 -4 -3 -9 5 -5 8 -9 22 -9 30 0 16 17 -16 18 -35z m21 -50
c0 -5 -5 -3 -10 5 -5 8 -10 20 -10 25 0 6 5 3 10 -5 5 -8 10 -19 10 -25z
m4247 3 c-3 -8 -6 -5 -6 6 -1 11 2 17 5 13 3 -3 4 -12 1 -19z m-4168 -132 c9
-12 11 -16 3 -12 -15 9 -82 110 -82 123 0 4 14 -14 31 -42 17 -27 39 -59 48
-69z m4168 -28 c-3 -8 -6 -5 -6 6 -1 11 2 17 5 13 3 -3 4 -12 1 -19z m-4017
-111 c25 -18 24 -18 -6 -1 -17 9 -56 39 -85 66 l-54 49 60 -48 c33 -26 72 -56
85 -66z m75 -45 c-3 -3 -11 0 -18 7 -9 10 -8 11 6 5 10 -3 15 -9 12 -12z
m3942 -4 c-3 -8 -6 -5 -6 6 -1 11 2 17 5 13 3 -3 4 -12 1 -19z m-3897 -8 c8
-5 11 -10 5 -10 -5 0 -17 5 -25 10 -8 5 -10 10 -5 10 6 0 17 -5 25 -10z m85
-30 c13 -6 15 -9 5 -9 -8 0 -22 4 -30 9 -18 12 -2 12 25 0z m68 -17 c-7 -2
-21 -2 -30 0 -10 3 -4 5 12 5 17 0 24 -2 18 -5z m75 -10 c-10 -2 -26 -2 -35 0
-10 3 -2 5 17 5 19 0 27 -2 18 -5z m50 -2380 c-2 -1308 -4 -1993 -5 -1523 -7
2282 -7 3900 0 3900 4 0 6 -1070 5 -2377z m3619 2285 c-3 -8 -6 -5 -6 6 -1 11
2 17 5 13 3 -3 4 -12 1 -19z m0 -160 c-3 -8 -6 -5 -6 6 -1 11 2 17 5 13 3 -3
4 -12 1 -19z m0 -160 c-3 -8 -6 -5 -6 6 -1 11 2 17 5 13 3 -3 4 -12 1 -19z m0
-160 c-3 -8 -6 -5 -6 6 -1 11 2 17 5 13 3 -3 4 -12 1 -19z m0 -160 c-3 -8 -6
-5 -6 6 -1 11 2 17 5 13 3 -3 4 -12 1 -19z m0 -160 c-3 -8 -6 -5 -6 6 -1 11 2
17 5 13 3 -3 4 -12 1 -19z m0 -160 c-3 -8 -6 -5 -6 6 -1 11 2 17 5 13 3 -3 4
-12 1 -19z m0 -160 c-3 -8 -6 -5 -6 6 -1 11 2 17 5 13 3 -3 4 -12 1 -19z m0
-160 c-3 -8 -6 -5 -6 6 -1 11 2 17 5 13 3 -3 4 -12 1 -19z m-1599 -5 c-10 -2
-26 -2 -35 0 -10 3 -2 5 17 5 19 0 27 -2 18 -5z m49 -9 c-3 -3 -12 -4 -19 -1
-8 3 -5 6 6 6 11 1 17 -2 13 -5z m-460 -257 c-1 -45 -3 -5 -3 88 0 94 2 130 3
82 2 -48 2 -125 0 -170z m70 -9 c-1 -51 -3 -12 -3 87 0 99 2 141 3 93 2 -48 2
-129 0 -180z m217 243 c-17 -10 -43 -34 -58 -52 -15 -19 -23 -24 -17 -13 13
26 77 84 94 84 7 0 -2 -9 -19 -19z m222 3 c18 -14 18 -14 -6 -3 -31 14 -36 19
-24 19 6 0 19 -7 30 -16z m237 9 l-33 -4 0 -234 c0 -214 1 -234 18 -238 13 -4
11 -5 -5 -6 l-23 -1 0 245 0 245 38 -2 c36 -1 36 -1 5 -5z m285 0 l-118 -4 -3
-242 -2 -242 -3 248 -2 247 123 -2 122 -2 -117 -3z m149 -9 c-3 -3 -12 -4 -19
-1 -8 3 -5 6 6 6 11 1 17 -2 13 -5z m-612 -51 c14 -21 25 -44 24 -53 0 -8 -4
-5 -10 9 -5 13 -18 36 -30 52 -11 16 -18 29 -15 29 3 0 17 -17 31 -37z m707
-28 c11 -21 10 -20 -37 35 l-30 35 28 -25 c16 -14 33 -34 39 -45z m-814 27
c18 -9 42 -33 54 -52 l20 -35 -21 25 c-11 14 -21 27 -21 30 0 12 -47 33 -89
40 -43 7 -44 8 -11 9 19 0 50 -7 68 -17z m-131 -8 c-15 -8 -37 -30 -47 -47
-11 -18 -20 -26 -20 -18 0 17 64 81 82 81 7 -1 0 -8 -15 -16z m706 9 l-53 -4
-3 -177 -2 -177 -3 183 -2 182 58 -2 57 -2 -52 -3z m123 -19 c10 -8 13 -12 6
-9 -8 4 -26 11 -40 15 -22 7 -23 8 -6 9 11 1 29 -6 40 -15z m44 -34 c6 -11 8
-20 6 -20 -3 0 -10 9 -16 20 -6 11 -8 20 -6 20 3 0 10 -9 16 -20z m-1009 -21
c-5 -13 -10 -19 -10 -12 -1 15 10 45 15 40 3 -2 0 -15 -5 -28z m1108 -19 c0
-10 -3 -8 -9 5 -12 27 -12 43 0 25 5 -8 9 -22 9 -30z m708 18 c-3 -8 -6 -5 -6
6 -1 11 2 17 5 13 3 -3 4 -12 1 -19z m-1750 -40 c-3 -8 -6 -5 -6 6 -1 11 2 17
5 13 3 -3 4 -12 1 -19z m-80 -95 c-2 -21 -4 -4 -4 37 0 41 2 58 4 38 2 -21 2
-55 0 -75z m1050 60 c-3 -10 -5 -4 -5 12 0 17 2 24 5 18 2 -7 2 -21 0 -30z
m80 -55 c-2 -18 -4 -6 -4 27 0 33 2 48 4 33 2 -15 2 -42 0 -60z m-1060 10 c-2
-13 -4 -3 -4 22 0 25 2 35 4 23 2 -13 2 -33 0 -45z m980 -35 c-3 -10 -5 -4 -5
12 0 17 2 24 5 18 2 -7 2 -21 0 -30z m780 -5 c-3 -8 -6 -5 -6 6 -1 11 2 17 5
13 3 -3 4 -12 1 -19z m-1719 -76 c8 -13 28 -30 45 -37 18 -8 25 -14 16 -15
-36 0 -101 79 -98 122 0 7 6 0 12 -17 7 -16 18 -40 25 -53z m-524 -7 c5 -13 2
-12 -8 5 -8 14 -15 36 -15 50 1 23 2 22 9 -5 4 -16 11 -39 14 -50z m1512 0
c-24 -40 -73 -85 -93 -85 -4 0 7 10 25 21 34 22 81 93 83 125 1 17 2 17 6 1 2
-10 -7 -37 -21 -62z m-1089 43 c-3 -8 -6 -5 -6 6 -1 11 2 17 5 13 3 -3 4 -12
1 -19z m-510 -30 c-3 -7 -5 -2 -5 12 0 14 2 19 5 13 2 -7 2 -19 0 -25z m305 0
c-8 -8 -9 -4 -5 13 4 13 8 18 11 10 2 -7 -1 -18 -6 -23z m576 25 c-26 -3 -39
-10 -43 -23 -7 -22 -56 -60 -77 -60 -7 0 2 8 20 17 18 9 40 29 48 45 12 24 20
28 52 26 l37 -1 -37 -4z m636 -24 c-23 -26 -67 -49 -91 -49 -10 1 0 7 21 15
22 7 48 23 60 34 27 27 35 27 10 0z m-1138 -17 c-19 -59 -103 -116 -159 -109
l-32 4 35 2 c54 2 112 40 135 87 21 43 32 51 21 16z m215 -75 c23 -17 23 -17
1 -7 -23 11 -82 85 -82 103 0 6 13 -9 28 -34 16 -24 39 -52 53 -62z m319 90
c0 -7 -7 -22 -15 -33 -13 -17 -13 -16 -3 14 13 34 18 40 18 19z m-818 -101
c24 -8 52 -17 63 -19 16 -4 15 -5 -5 -6 -54 -2 -150 66 -150 105 0 5 11 -8 25
-28 16 -24 39 -41 67 -52z m188 69 c-7 -8 -17 -15 -23 -15 -6 0 -2 7 9 15 25
19 30 19 14 0z m-383 -37 c-3 -8 -6 -5 -6 6 -1 11 2 17 5 13 3 -3 4 -12 1 -19z
m826 5 c-7 -2 -19 -2 -25 0 -7 3 -2 5 12 5 14 0 19 -2 13 -5z m157 3 c0 -2 -8
-10 -17 -17 -16 -13 -17 -12 -4 4 13 16 21 21 21 13z m1447 -28 c-3 -8 -6 -5
-6 6 -1 11 2 17 5 13 3 -3 4 -12 1 -19z m-2427 -13 c0 -13 -23 -15 -152 -13
l-153 2 148 3 c86 2 147 8 147 13 0 6 2 10 5 10 3 0 5 -7 5 -15z m926 0 c-11
-8 -25 -15 -30 -15 -6 1 0 7 14 15 32 19 40 18 16 0z m264 -5 c0 -5 -5 -10
-11 -10 -5 0 -7 5 -4 10 3 6 8 10 11 10 2 0 4 -4 4 -10z m-401 -16 c10 -9 -45
-3 -59 6 -11 7 -5 8 20 4 19 -4 37 -8 39 -10z m764 9 c-7 -2 -21 -2 -30 0 -10
3 -4 5 12 5 17 0 24 -2 18 -5z m-680 -10 c-7 -2 -21 -2 -30 0 -10 3 -4 5 12 5
17 0 24 -2 18 -5z m1554 -125 c-3 -8 -6 -5 -6 6 -1 11 2 17 5 13 3 -3 4 -12 1
-19z m138 -181 l130 -3 -133 -2 -132 -2 2 -1260 c2 -692 0 -1256 -4 -1252 -6
6 -12 2250 -8 2532 0 11 2 12 8 3 5 -8 49 -13 137 -16z m-345 -1199 l-1 -1203
-49 53 c-28 30 -55 63 -61 75 -6 13 -1 10 13 -8 13 -16 37 -46 55 -65 l32 -35
1 1193 c0 655 2 1192 5 1192 3 0 5 -541 5 -1202z m87 1196 c-3 -3 -12 -4 -19
-1 -8 3 -5 6 6 6 11 1 17 -2 13 -5z m461 -11 c-10 -2 -26 -2 -35 0 -10 3 -2 5
17 5 19 0 27 -2 18 -5z m59 -9 c-3 -3 -12 -4 -19 -1 -8 3 -5 6 6 6 11 1 17 -2
13 -5z m40 -10 c-3 -3 -12 -4 -19 -1 -8 3 -5 6 6 6 11 1 17 -2 13 -5z m115
-47 c97 -51 198 -147 256 -247 37 -63 19 -47 -22 19 -52 84 -159 180 -258 231
-46 23 -72 38 -58 35 14 -4 51 -21 82 -38z m312 -367 c3 -14 -3 -7 -13 15 -11
22 -20 45 -20 50 0 15 26 -37 33 -65z m13 -52 c-3 -8 -6 -5 -6 6 -1 11 2 17 5
13 3 -3 4 -12 1 -19z m10 -50 c-3 -7 -5 -2 -5 12 0 14 2 19 5 13 2 -7 2 -19 0
-25z m10 -55 c-3 -10 -5 -4 -5 12 0 17 2 24 5 18 2 -7 2 -21 0 -30z m-4284
-50 c-10 -4 -13 -204 -13 -953 0 -522 -3 -951 -7 -953 -8 -5 -6 1879 2 1901 2
6 10 12 17 11 10 0 10 -2 1 -6z m110 0 c-13 -2 -35 -2 -50 0 -16 2 -5 4 22 4
28 0 40 -2 28 -4z m87 -953 l0 -949 40 -4 40 -4 -42 1 -43 1 -5 957 c-3 526
-2 954 3 951 4 -2 7 -431 7 -953z m228 953 c-17 -4 -18 -58 -18 -953 0 -522
-3 -951 -7 -953 -5 -3 -7 426 -5 954 l2 959 23 -1 c17 -1 18 -2 5 -6z m55 0
c-7 -2 -19 -2 -25 0 -7 3 -2 5 12 5 14 0 19 -2 13 -5z m80 0 c-7 -2 -19 -2
-25 0 -7 3 -2 5 12 5 14 0 19 -2 13 -5z m80 0 c-7 -2 -19 -2 -25 0 -7 3 -2 5
12 5 14 0 19 -2 13 -5z m80 0 c-7 -2 -19 -2 -25 0 -7 3 -2 5 12 5 14 0 19 -2
13 -5z m54 1 c-3 -3 -12 -4 -19 -1 -8 3 -5 6 6 6 11 1 17 -2 13 -5z m46 -1
c-7 -2 -19 -2 -25 0 -7 3 -2 5 12 5 14 0 19 -2 13 -5z m44 1 c-3 -3 -12 -4
-19 -1 -8 3 -5 6 6 6 11 1 17 -2 13 -5z m76 -1 c-7 -2 -19 -2 -25 0 -7 3 -2 5
12 5 14 0 19 -2 13 -5z m74 1 c-3 -3 -12 -4 -19 -1 -8 3 -5 6 6 6 11 1 17 -2
13 -5z m46 -1 c-7 -2 -19 -2 -25 0 -7 3 -2 5 12 5 14 0 19 -2 13 -5z m44 1
c-3 -3 -12 -4 -19 -1 -8 3 -5 6 6 6 11 1 17 -2 13 -5z m76 -1 c-7 -2 -19 -2
-25 0 -7 3 -2 5 12 5 14 0 19 -2 13 -5z m74 1 c-3 -3 -12 -4 -19 -1 -8 3 -5 6
6 6 11 1 17 -2 13 -5z m46 -1 c-7 -2 -19 -2 -25 0 -7 3 -2 5 12 5 14 0 19 -2
13 -5z m44 1 c-3 -3 -12 -4 -19 -1 -8 3 -5 6 6 6 11 1 17 -2 13 -5z m76 -1
c-7 -2 -19 -2 -25 0 -7 3 -2 5 12 5 14 0 19 -2 13 -5z m74 1 c-3 -3 -12 -4
-19 -1 -8 3 -5 6 6 6 11 1 17 -2 13 -5z m46 -1 c-7 -2 -19 -2 -25 0 -7 3 -2 5
12 5 14 0 19 -2 13 -5z m44 1 c-3 -3 -12 -4 -19 -1 -8 3 -5 6 6 6 11 1 17 -2
13 -5z m76 -1 c-7 -2 -19 -2 -25 0 -7 3 -2 5 12 5 14 0 19 -2 13 -5z m74 1
c-3 -3 -12 -4 -19 -1 -8 3 -5 6 6 6 11 1 17 -2 13 -5z m46 -1 c-7 -2 -19 -2
-25 0 -7 3 -2 5 12 5 14 0 19 -2 13 -5z m44 1 c-3 -3 -12 -4 -19 -1 -8 3 -5 6
6 6 11 1 17 -2 13 -5z m76 -1 c-7 -2 -19 -2 -25 0 -7 3 -2 5 12 5 14 0 19 -2
13 -5z m74 1 c-3 -3 -12 -4 -19 -1 -8 3 -5 6 6 6 11 1 17 -2 13 -5z m46 -1
c-7 -2 -19 -2 -25 0 -7 3 -2 5 12 5 14 0 19 -2 13 -5z m80 0 c-7 -2 -19 -2
-25 0 -7 3 -2 5 12 5 14 0 19 -2 13 -5z m80 0 c-7 -2 -19 -2 -25 0 -7 3 -2 5
12 5 14 0 19 -2 13 -5z m80 0 c-7 -2 -19 -2 -25 0 -7 3 -2 5 12 5 14 0 19 -2
13 -5z m80 0 c-7 -2 -19 -2 -25 0 -7 3 -2 5 12 5 14 0 19 -2 13 -5z m80 0 c-7
-2 -19 -2 -25 0 -7 3 -2 5 12 5 14 0 19 -2 13 -5z m80 0 c-7 -2 -19 -2 -25 0
-7 3 -2 5 12 5 14 0 19 -2 13 -5z m80 0 c-7 -2 -19 -2 -25 0 -7 3 -2 5 12 5
14 0 19 -2 13 -5z m74 1 c-3 -3 -12 -4 -19 -1 -8 3 -5 6 6 6 11 1 17 -2 13 -5z
m40 0 c-3 -3 -12 -4 -19 -1 -8 3 -5 6 6 6 11 1 17 -2 13 -5z m46 -1 c-7 -2
-19 -2 -25 0 -7 3 -2 5 12 5 14 0 19 -2 13 -5z m44 1 c-3 -3 -12 -4 -19 -1 -8
3 -5 6 6 6 11 1 17 -2 13 -5z m76 -1 c-7 -2 -19 -2 -25 0 -7 3 -2 5 12 5 14 0
19 -2 13 -5z m95 -650 l-3 -658 -2 652 -3 652 -23 4 c-19 4 -18 4 6 6 l27 1
-2 -657z m654 649 c-9 -7 -12 -71 -10 -288 l3 -279 60 -6 60 -6 -55 -1 c-33
-1 -61 3 -68 10 -9 9 -12 87 -12 288 0 152 3 280 7 283 3 4 11 7 17 7 6 0 6
-4 -2 -8z m-1084 -339 c-15 -2 -42 -2 -60 0 -18 2 -6 4 27 4 33 0 48 -2 33 -4z
m-1788 -102 c0 -70 4 -101 13 -104 7 -3 5 -6 -5 -6 -16 -1 -18 10 -18 100 l0
101 -34 -4 c-19 -2 -32 0 -30 4 3 4 21 8 40 8 l34 0 0 -99z m328 -148 l-3
-248 -2 243 -3 242 -30 0 -30 0 0 -100 c0 -89 -2 -100 -17 -99 -11 0 -13 3 -5
6 8 3 12 34 12 104 l0 99 40 0 40 0 -2 -247z m335 240 c-12 -2 -25 -13 -28
-24 -4 -11 -9 -18 -12 -16 -11 12 19 47 40 46 l22 -2 -22 -4z m54 1 c-3 -3
-12 -4 -19 -1 -8 3 -5 6 6 6 11 1 17 -2 13 -5z m381 -176 l-3 -183 -2 178 -3
177 -35 0 -35 0 -2 -127 -2 -128 -3 119 c-2 66 -1 126 1 133 3 8 22 13 46 13
l40 0 -2 -182z m320 0 l-3 -183 -2 179 -3 178 -35 -4 c-19 -2 -35 0 -35 4 0 4
18 8 40 8 l40 0 -2 -182z m242 164 c-19 -9 -45 -32 -57 -51 -13 -19 -23 -28
-23 -21 0 19 75 90 96 90 12 0 7 -6 -16 -18z m209 -3 c18 -11 30 -23 27 -27
-4 -3 -10 -2 -14 4 -4 6 -20 18 -37 27 -16 9 -25 16 -20 17 6 0 25 -9 44 -21z
m-1129 -34 c0 -5 -5 -3 -10 5 -5 8 -10 20 -10 25 0 6 5 3 10 -5 5 -8 10 -19
10 -25z m1028 -2 c-10 -2 -28 -2 -40 0 -13 2 -5 4 17 4 22 1 32 -1 23 -4z
m-89 -26 c-13 -13 -26 -21 -29 -19 -5 4 38 42 48 42 3 0 -6 -10 -19 -23z m136
13 c3 -6 -1 -7 -9 -4 -18 7 -21 14 -7 14 6 0 13 -4 16 -10z m103 -15 c-3 -3
-9 2 -12 12 -6 14 -5 15 5 6 7 -7 10 -15 7 -18z m-1317 -32 c-12 -20 -14 -14
-5 12 4 9 9 14 11 11 3 -2 0 -13 -6 -23z m89 16 c0 -5 -4 -8 -8 -5 -5 3 -16
-20 -26 -50 -10 -31 -20 -54 -22 -51 -4 3 6 36 31 105 5 15 25 16 25 1z m80
-34 c0 -5 -5 -3 -10 5 -5 8 -10 20 -10 25 0 6 5 3 10 -5 5 -8 10 -19 10 -25z
m1160 20 c0 -11 -11 -15 -40 -15 -22 0 -40 4 -40 8 0 4 16 6 35 4 21 -3 35 0
35 7 0 6 2 11 5 11 3 0 5 -7 5 -15z m-353 -32 c-3 -10 -5 -4 -5 12 0 17 2 24
5 18 2 -7 2 -21 0 -30z m94 -20 c13 -16 12 -17 -3 -4 -17 13 -22 21 -14 21 2
0 10 -8 17 -17z m-1107 -57 c-9 -26 -18 -45 -20 -43 -2 2 3 25 12 51 9 26 18
45 20 43 2 -2 -3 -25 -12 -51z m1055 -1 l26 -30 -32 29 c-18 17 -33 37 -32 45
0 14 1 14 6 1 3 -8 17 -28 32 -45z m-890 0 c0 -5 -4 -3 -9 5 -5 8 -9 22 -9 30
0 16 17 -16 18 -35z m996 35 c13 -6 15 -9 5 -9 -8 0 -22 4 -30 9 -18 12 -2 12
25 0z m-1632 -17 c-7 -2 -19 -2 -25 0 -7 3 -2 5 12 5 14 0 19 -2 13 -5z m44 1
c-3 -3 -12 -4 -19 -1 -8 3 -5 6 6 6 11 1 17 -2 13 -5z m76 -1 c-7 -2 -19 -2
-25 0 -7 3 -2 5 12 5 14 0 19 -2 13 -5z m1622 -18 c39 -17 21 -18 -25 0 -19 7
-28 14 -20 14 8 0 29 -6 45 -14z m-1215 -32 c-11 -17 -11 -17 -6 0 3 10 6 24
7 30 0 9 2 9 5 0 3 -7 0 -20 -6 -30z m200 -18 c0 -5 -5 -3 -10 5 -5 8 -10 20
-10 25 0 6 5 3 10 -5 5 -8 10 -19 10 -25z m1105 -15 c8 -16 14 -46 14 -67 -2
-33 -3 -34 -6 -8 -7 60 -14 77 -41 102 -23 22 -24 24 -5 14 13 -6 30 -25 38
-41z m1098 43 c-7 -2 -19 -2 -25 0 -7 3 -2 5 12 5 14 0 19 -2 13 -5z m62 -13
c13 -5 14 -9 5 -9 -8 0 -24 4 -35 9 -13 5 -14 9 -5 9 8 0 24 -4 35 -9z m-2823
-120 c2 -61 0 -110 -4 -110 -5 0 -8 47 -8 105 l0 104 -127 4 -128 3 132 2 132
2 3 -110z m488 95 c0 -12 -15 -15 -75 -15 -41 0 -75 3 -75 8 0 4 31 6 70 4 46
-2 70 0 70 7 0 6 2 11 5 11 3 0 5 -7 5 -15z m267 -17 c-3 -7 -5 -2 -5 12 0 14
2 19 5 13 2 -7 2 -19 0 -25z m738 22 c13 -5 14 -9 5 -9 -8 0 -24 4 -35 9 -13
5 -14 9 -5 9 8 0 24 -4 35 -9z m1410 -11 c5 -5 -5 -4 -23 2 -17 6 -32 13 -32
16 0 7 43 -8 55 -18z m-2646 -58 c-12 -34 -23 -60 -25 -58 -2 2 6 32 17 66 12
34 23 60 25 58 2 -2 -6 -32 -17 -66z m-519 -41 c0 -89 -2 -100 -17 -99 -11 0
-13 3 -5 6 8 3 12 33 12 99 0 52 2 94 5 94 3 0 5 -45 5 -100z m1829 85 c29
-15 42 -34 40 -63 0 -9 -5 -3 -10 14 -7 23 -19 36 -47 47 -20 9 -31 16 -24 16
7 1 26 -6 41 -14z m1411 -31 c0 -2 -13 2 -30 11 -16 9 -30 18 -30 21 0 2 14
-2 30 -11 17 -9 30 -18 30 -21z m-1900 -18 c0 -21 -49 -76 -68 -76 -11 0 -9 4
8 13 14 7 32 27 40 44 17 36 20 39 20 19z m2015 -71 c22 -22 51 -56 63 -75 22
-32 21 -32 -10 5 -40 48 -71 79 -123 123 -38 32 -38 32 -5 10 19 -12 53 -41
75 -63z m-2491 25 c5 -17 4 -20 -2 -10 -5 8 -13 26 -16 40 -5 17 -4 20 2 10 5
-8 13 -26 16 -40z m163 28 c-3 -8 -6 -5 -6 6 -1 11 2 17 5 13 3 -3 4 -12 1
-19z m-247 -9 c7 -11 9 -23 7 -26 -3 -2 -8 5 -12 16 -3 12 -17 21 -33 24 l-27
4 27 2 c18 1 31 -6 38 -20z m870 -11 l22 -33 -24 28 c-25 28 -72 37 -81 15 -3
-8 -6 -6 -6 5 -1 13 7 17 33 17 28 0 39 -6 56 -32z m-506 -19 c17 -10 26 -19
20 -19 -17 0 -64 40 -63 53 0 8 3 7 6 -1 3 -8 19 -22 37 -33z m-24 -66 c24
-13 39 -23 32 -23 -36 0 -122 72 -122 102 0 6 10 -4 23 -23 12 -19 42 -44 67
-56z m717 62 c-15 -14 -38 -25 -50 -24 -17 1 -15 3 9 10 17 5 37 16 44 24 7 8
15 15 19 15 3 0 -7 -12 -22 -25z m-1276 -16 c-5 -13 -10 -19 -10 -12 -1 15 10
45 15 40 3 -2 0 -15 -5 -28z m813 -10 c-31 -33 -74 -59 -96 -59 -7 0 5 9 28
19 22 10 51 32 65 48 13 17 26 29 28 27 3 -3 -9 -18 -25 -35z m252 -25 c18
-15 18 -15 -2 -5 -21 10 -54 52 -54 68 0 4 8 -4 18 -20 10 -15 27 -34 38 -43z
m304 57 c0 -6 -11 -23 -25 -38 l-26 -28 23 37 c25 40 28 43 28 29z m-1451 -50
c-6 -18 -13 -30 -15 -28 -2 2 1 18 7 36 6 18 13 30 15 28 2 -2 -1 -18 -7 -36z
m352 -22 c8 -5 9 -9 3 -9 -15 0 -30 20 -38 50 -5 22 -4 22 7 -3 8 -16 20 -33
28 -38z m885 43 c-10 -2 -22 0 -28 6 -6 6 0 7 19 4 21 -5 23 -7 9 -10z m-478
1 c-10 -2 -28 -2 -40 0 -13 2 -5 4 17 4 22 1 32 -1 23 -4z m-344 -39 c3 -8 2
-12 -4 -9 -6 3 -10 10 -10 16 0 14 7 11 14 -7z m971 -4 c-3 -5 -12 -10 -18
-10 -7 0 -6 4 3 10 19 12 23 12 15 0z m-1912 -7 c-7 -2 -19 -2 -25 0 -7 3 -2
5 12 5 14 0 19 -2 13 -5z m354 1 c-3 -3 -12 -4 -19 -1 -8 3 -5 6 6 6 11 1 17
-2 13 -5z m233 2 c0 -2 -7 -7 -16 -10 -8 -3 -12 -2 -9 4 6 10 25 14 25 6z
m1145 -6 c13 -6 15 -9 5 -9 -8 0 -22 4 -30 9 -18 12 -2 12 25 0z m142 -6 c-3
-3 -12 -4 -19 -1 -8 3 -5 6 6 6 11 1 17 -2 13 -5z m-584 -11 c-13 -2 -35 -2
-50 0 -16 2 -5 4 22 4 28 0 40 -2 28 -4z m530 0 c-13 -2 -33 -2 -45 0 -13 2
-3 4 22 4 25 0 35 -2 23 -4z m1697 -69 c12 -19 21 -37 18 -39 -2 -2 -14 14
-26 36 -28 49 -22 52 8 3z m40 -89 c0 -5 -5 -3 -10 5 -5 8 -10 20 -10 25 0 6
5 3 10 -5 5 -8 10 -19 10 -25z m17 -67 c-3 -8 -6 -5 -6 6 -1 11 2 17 5 13 3
-3 4 -12 1 -19z m10 -50 c-3 -7 -5 -2 -5 12 0 14 2 19 5 13 2 -7 2 -19 0 -25z
m10 -85 c-2 -16 -4 -5 -4 22 0 28 2 40 4 28 2 -13 2 -35 0 -50z m0 -125 c-2
-13 -4 -3 -4 22 0 25 2 35 4 23 2 -13 2 -33 0 -45z m-1320 -25 c-3 -10 -5 -4
-5 12 0 17 2 24 5 18 2 -7 2 -21 0 -30z m1310 -35 c-3 -8 -6 -5 -6 6 -1 11 2
17 5 13 3 -3 4 -12 1 -19z m-1300 -10 c-3 -8 -6 -5 -6 6 -1 11 2 17 5 13 3 -3
4 -12 1 -19z m1283 -53 c-16 -47 -23 -40 -8 8 6 20 13 35 16 33 2 -3 -1 -21
-8 -41z m-1261 -10 c0 -5 -4 -3 -9 5 -5 8 -9 22 -9 30 0 16 17 -16 18 -35z
m21 -50 c0 -5 -5 -3 -10 5 -5 8 -10 20 -10 25 0 6 5 3 10 -5 5 -8 10 -19 10
-25z m1211 -8 c-10 -9 -11 -8 -5 6 3 10 9 15 12 12 3 -3 0 -11 -7 -18z m-1186
-37 c9 -16 13 -30 11 -30 -3 0 -12 14 -21 30 -9 17 -13 30 -11 30 3 0 12 -13
21 -30z m1160 -10 c-9 -16 -18 -30 -21 -30 -2 0 2 14 11 30 9 17 18 30 21 30
2 0 -2 -13 -11 -30z m-41 -62 c-39 -48 -120 -130 -145 -148 -14 -11 15 23 65
74 90 93 117 118 80 74z m-239 -208 c-3 -5 -12 -10 -18 -10 -7 0 -6 4 3 10 19
12 23 12 15 0z m-45 -20 c-8 -5 -19 -10 -25 -10 -5 0 -3 5 5 10 8 5 20 10 25
10 6 0 3 -5 -5 -10z m-443 -16 c-3 -3 -12 -4 -19 -1 -8 3 -5 6 6 6 11 1 17 -2
13 -5z m40 -10 c-3 -3 -12 -4 -19 -1 -8 3 -5 6 6 6 11 1 17 -2 13 -5z m330 0
c-3 -3 -12 -4 -19 -1 -8 3 -5 6 6 6 11 1 17 -2 13 -5z m-280 -10 c-3 -3 -12
-4 -19 -1 -8 3 -5 6 6 6 11 1 17 -2 13 -5z m236 -1 c-7 -2 -19 -2 -25 0 -7 3
-2 5 12 5 14 0 19 -2 13 -5z m-3400 -10 c-13 -2 -35 -2 -50 0 -16 2 -5 4 22 4
28 0 40 -2 28 -4z m3300 0 c-24 -2 -62 -2 -85 0 -24 2 -5 4 42 4 47 0 66 -2
43 -4z"/>
</g>
</svg>
