<svg version="1" xmlns="http://www.w3.org/2000/svg" width="346.667" height="346.667" viewBox="0 0 260.000000 260.000000"><path d="M0 100c0 55 .1 100 .3 100.1.1 0 5.2.3 11.3.5 9.2.4 11.3.2 12.4-1.1.7-.8 2.6-1.5 4.2-1.5 2 0 2.7-.4 2.2-1.2-.5-.8-.2-.9 1-.5 1 .4 2.4.7 3.2.7.8 0 1.1.7.8 1.8-.5 1.5-.4 1.5 1-.2.9-1.1 3.2-2 5.8-2.2 2.4-.2 5.4-.6 6.8-1 1.4-.3 4.9-.8 7.9-1 4-.3 5.8-.9 6.8-2.4 1.3-1.9 1.5-1.9 3.1-.4 1.5 1.5 1.7 1.5 3.4-.6 1-1.2 1.8-1.9 1.8-1.4 0 .4.5.3 1.1-.3.8-.8 2-.7 4.5.3 1.9.8 4 1.1 4.7.7 1.8-1.1 3.5-1.4 10.2-1.7 3.3-.2 7.7-.8 9.8-1.5 2-.7 4.3-1.1 5-.8.6.2 3.1-.4 5.4-1.4 3.1-1.3 4.3-1.5 4.7-.6.2.7.5.4.5-.7.1-1.3.6-1.7 2.1-1.3 1.3.3 3.1-.4 5-2 2.7-2.2 3-2.3 3-.6 0 1.5.3 1.4 2-.7 1.1-1.4 2-1.9 2-1.3 0 .7.7 1.3 1.5 1.3 2 0 9.5-3.3 9.5-4.1 0-.4.9-.5 2-.2s2.7 0 3.5-.7c1.1-.9 1.5-.9 1.5-.1 0 .7.5.9 1 .6.6-.4.7-1.1.4-1.7-.5-.8-.1-.9 1.1-.4 1.1.4 2.2.2 2.7-.6.6-1 1-1 1.8.2 1.6 2.4 1.1.1-.6-3.3-4.1-7.8-4.3-8.8-1.6-6.5 3 2.7 4.2 3 4.2 1.3 0-.9-.4-1.4-.8-1.1-.5.3-2.8-.8-5-2.5-4.3-3.1-5.4-4.6-2.7-3.5 1.8.7 2-1.5.3-3.2-1.8-1.8-.1-1.5 2.9.5 2.6 1.7 2.7 1.7 2 0-.4-1-.7-2.1-.7-2.3 0-.3-.5-.2-1 .1-.6.3-1 .1-1-.5 0-.7.3-1 .8-.8.4.3 2.2 1.1 4 1.8 1.7.8 3.2 1.9 3.2 2.5 0 1.4 4 4.8 4.8 4.1 1-1.1-2.2-5.8-4.7-6.7-2-.8-2.2-1.2-1.1-2.2 1-.9 1.4-.9 1.7.1.4 1 .8 1 1.9.1 1.2-1 1.6-.8 2 .9.4 1.2 1.2 1.8 1.9 1.6.7-.3 1.5-.1 1.9.4.6 1 6.6.3 6.6-.8 0-.4-1.4-1.3-3-1.9-2.2-.7-3-1.6-3-3.3 0-1.9.2-2 1-.8.6 1 1 1.1 1 .2 0-.6.5-1.2 1.1-1.2.5 0 .7.4.4 1-.3.5.3 1.5 1.5 2.2 2.1 1.3 2.6 4.3 1.1 6.7-.5.7-1.4 1-2 .7-.6-.4-1.1-.5-1.1-.1 0 .3 1 1 2.3 1.5 1.7.7 1.8.9.5.9-1 .1-1.8.4-1.8.9 0 1 3.8 4.2 5 4.2.6 0 1 .4 1 1 0 .5.5 1 1.1 1 .6 0 .9-.6.6-1.4-.3-.7-.1-1.8.5-2.4.6-.6.6-1.2-.1-1.6-.6-.4-1.1-.4-1.1.1 0 .4-.4.2-.9-.6-1.2-1.8-.3-4.1 1.5-4.1 1.2 0 1.2-.4.2-1.9-.7-1.1-1.5-1.8-1.8-1.6-.3.2-.6-1.5-.5-3.8 0-3.3-.5-4.3-2.2-5.2-4.7-2.4-6.2-4.5-5.6-8.1.5-2.9.1-3.8-3-6.9-1.9-1.9-3.7-4.1-4-5-1.1-2.6 1-2.5 3.9.2 1.6 1.5 3.2 2.6 3.7 2.5.4-.1.7.2.7.8 0 .5.9 1 2 1s2 .5 2 1.1c0 .6.6.9 1.4.6.8-.3 2.2.3 3.2 1.4 1.7 1.9 1.7 2-.2 1.3-1.7-.7-1.7-.5.4 1.8 1.2 1.3 2.2 2.8 2.2 3.4 0 .5-.5.1-1.1-.9-.5-.9-1.6-1.7-2.4-1.7-.8 0-1.9-.9-2.5-2-.6-1.1-2-2.5-3.3-3.1-1.5-.9-1.2-.2 1.3 2.5 1.9 2.1 3.4 4.2 3.2 4.7-.1.5.5.9 1.4.9 1.3 0 1.5.7 1.1 3.4-.4 2.8 0 4 2.2 6.5 4 4.4 4.7 3.8 1.7-1.3-2.9-5-3.3-6.8-1.2-6 .8.3 1.6-.2 1.8-1.2.3-1.7.4-1.7 2.1 0 .9 1 1.7 1.4 1.7 1 0-.4.9.1 2 1.1 1.5 1.4 2 1.5 2 .4 0-.8.8-.4 1.9 1.1 1.1 1.3 1.7 2.8 1.5 3.2-.6.9 2.1 5 2.8 4.3.2-.3 1.1.6 1.8 2s2 2.5 2.9 2.4c1.1 0 1.2-.2.3-.6-.6-.2-.9-.9-.6-1.5.4-.6.7-2.4.6-3.9 0-1.6.3-2.9.8-2.9s.7.6.4 1.4c-.4 1.1 0 1.3 1.4.9 1.4-.3 2.2.1 2.7 1.6.3 1.2 1.1 2.1 1.6 2.1.6 0 .8.4.4.9-.3.5.4 1.2 1.5 1.6 1.1.4 1.8 1.1 1.5 1.6-.4.5.5 2 1.9 3.3 1.4 1.3 2.6 3.4 2.6 4.6 0 1.3.3 2 .7 1.7 1.1-1.1 5.3 5.6 4.7 7.5-.3 1.2 0 1.8 1 1.8.9 0 1.6.4 1.6.9s-1.1.8-2.5.7c-1.4 0-2.5-.7-2.5-1.4 0-.6-.6-1.2-1.4-1.2-1.7 0-1.6 4.4.1 6.1 2.5 2.5-3.3 11.7-7.3 11.9-.6 0-2.3.9-3.7 2-1.4 1.1-3 2-3.6 2-.6 0-3.6 1.2-6.8 2.7-3.2 1.5-6.9 2.7-8.3 2.8-1.4 0-3.8.8-5.4 1.8-1.5 1-3 1.6-3.4 1.3-.3-.3-1.4.2-2.4 1.1-1.8 1.6-1.9 1.6-1.2-.3.4-1.3-.2-.9-2 1.1-1.4 1.6-2.5 2.5-2.6 1.8 0-.6.6-1.4 1.3-1.7.6-.3.1-.5-1.3-.4-1.4.2-3-.1-3.6-.5-.7-.4-1.4.2-1.8 1.6-.7 2.1-.7 2.1-1.6.2-.7-1.7-.9-1.7-.9-.3-.1 1.5-4.1 4.8-4.1 3.3 0-.3-.9-.1-2.1.5-1.1.6-4.3 1.3-7.1 1.5-2.8.2-5.8 1.1-6.8 2-1.4 1.3-1.9 1.3-2.2.3-.4-1-.8-1-1.9-.2-.8.7-2.9 1-4.8.9-1.8-.2-4.6.1-6.2.5-1.6.5-3.1.5-3.4 0-.6-1-5.1-.7-6.2.3-.9 1-2.5.9-1.9-.1.6-1-3-.9-4 .1-.4.4-1.8.4-3.1.1-1.3-.4-2.9-.2-3.6.4-1.2 1-4.4 1.5-15.7 2.7-3 .3-5.9 1-6.4 1.5-1.8 1.8-4.4 1.1-6.7-1.8-2.1-2.5-2.2-2.6-1.6-.4.7 3.1-1.2 3.7-7.9 2.5-3-.5-5.4-.7-5.4-.4 0 1.1-6.9 1.1-7.5 0-.5-.7-1.2-.6-2.3.3-.9.7-1.3.8-1 .3.4-.6-1.9-1-6-1-4.8 0-6.6-.4-6.4-1.2.1-.7-.7-1.3-1.8-1.3-1.2 0-1.7.5-1.4 1.4.3.8.1 1.7-.5 2.1-1 .5-1.6-2.1-1.2-4.8 0-.4-.3-.7-.9-.7-.5 0-1 .4-1 1 0 .5-1.4 1-3 1-1.8 0-2.9-.5-2.8-1.2.2-.6-.9-1.2-2.4-1.2-1.4-.1-3-.5-3.5-1s-.3-.6.5-.2c.7.4 1.2.1 1.2-.8 0-1.3-1.3-1.5-6.7-1.5-3.8.1-8.1-.2-9.8-.5-1.6-.4-4.3-.8-6-.9l-3-.2-.3 25.2L0 260h260V160c0-95-.1-100-1.7-99.2-1 .5-4.7 1.5-8.3 2.2-3.6.6-7.8 1.6-9.5 2.1-1.6.4-6.3 1.1-10.4 1.4-8.9.7-15.5 1.9-19.6 3.6-1.6.6-4.3 1.3-5.9 1.4-1.6.2-3.2.8-3.6 1.5-.5.8-.9.9-1.1.1-.5-1.3-9.9 1.3-11.1 3.2-.6.9-1 .9-1.7-.2-.6-.9-1.1-1-1.5-.2-.4.6-2.5 1.1-4.6 1.1-4.2 0-9 1.7-9 3.2 0 .5-.5.6-1.1.3-.5-.4-1.9.1-3.1 1.2-1.1 1-2.3 1.7-2.7 1.7-.7-.1-3.9 1-9.9 3.7-2.3 1-4.9 1.9-5.6 1.9-.7 0-1.9.7-2.6 1.5-1.4 1.7-4.6 2-5.3.5-.3-.6-.4-.5-.3.2.1.7-1.5 2.1-3.7 3.1-3.2 1.4-4.2 1.5-4.9.5-.5-.9-.8-.9-.8-.1 0 1.3-6.4 5.3-8.5 5.3-.7 0-1.5.3-1.7.7-.3.9-8 4.8-11.3 5.8-1.6.5-1.7.8-.5 1.5 1.4.9.7 1.4-1.2 1.1-.5 0-.8.7-.8 1.7-.1 1.5-.2 1.5-1.5-.2-.8-1.1-1.5-1.5-1.5-.9 0 1.4-4 5.6-7.3 7.7-3.6 2.2-4.4 4.4-2.2 6 1.7 1.2 1.6 1.4-1.3 2.7-2.6 1.1-2.9 1.6-2 3.4.6 1.1 1.4 2.2 1.9 2.5 1.6 1.1 12.6 10.7 16.2 14.1 2 2 3.7 3.4 3.7 3.1 0-.3 1.1.5 2.5 1.8s2.5 2.8 2.5 3.4c0 .5 1 2.1 2.3 3.5l2.2 2.5-3.5-2.4c-1.9-1.3-5.1-3.6-7.1-5.1-1.9-1.5-6-4-9-5.6-3-1.6-7.3-4.2-9.6-5.7-3.3-2.2-4.6-2.6-5.6-1.7-1.1.8-1.6.5-2.6-1.5-.7-1.7-1.7-2.4-2.6-2-.8.3-1.5.1-1.5-.4 0-.6-.7-1-1.5-1s-1.5-.9-1.5-2c0-1-.6-2.3-1.3-2.7-1.9-1.1-5.7-7.7-5.8-9.9-.1-1.4-.3-1.3-.8.6-.9 3 1.9 9.3 5.7 12.9 2.5 2.3 7.2 8.7 7.2 9.8 0 .3-.7 0-1.5-.7-1.4-1.2-1.5-1-1.1 1.2.3 1.7 0 2.5-1.1 2.5-1 0-1.3-.7-.8-2.4.4-1.7.1-2.3-1.1-2.3-1.2 0-1.5.6-1 2.5.5 2.1.3 2.5-1.6 2.6-1.3 0-3.1.2-4 .4-1.4.2-1.7-.2-1.3-1.8.6-2.4-1.3-6-2.1-4.1-.7 1.6-4.4.5-4.4-1.2 0-2 3-3 4.1-1.3.6 1 .9.6.9-1.5 0-2.8 0-2.8-2.5-1.2-1.4.9-3 1.4-3.4 1.1-.5-.3-1.1 0-1.3.7-.3.8-2.6.1-6.9-2-3.6-1.8-7.1-3.2-7.7-3.2-.7 0-1.2-.5-1.2-1 0-.6.4-1 .9-1 1.9 0 .4-5.9-2.2-8.5-3-3.1-3.3-4.1-1.4-4.8.7-.4.3-.8-1-1.2-1.3-.4-2.3-1.2-2.4-1.9 0-.6-.2-2-.4-3.1-.3-1.1-.2-2.8.1-3.8.6-2 3-2.3 3.7-.5.2.7.4.1.4-1.5 0-1.5-.3-2.7-.7-2.7-.5 0-1-2-1.1-4.4-.3-3.2-.1-4.2.9-3.9.7.3 1.9 0 2.7-.7.9-.7 1.5-.8 1.5-.2 0 .5-.7 1.2-1.5 1.6-.8.3-1.5 1.3-1.5 2.1 0 .9.4 1.4.8 1.1.4-.2 1.4-.1 2.2.4 1.8 1.1 4-.6 4-3.2 0-1 .7-2.1 1.5-2.4 1.5-.6 2-3.5.8-4.7-.3-.4-1.2.1-1.9 1.1-.8 1-2.6 1.7-4.9 1.7l-3.6.1 2.3-1.8c1.3-.9 3.2-1.5 4.3-1.3 1.1.3 1.4.2.7-.1-.9-.4-.7-1.3.9-3.5 2.4-3.5 4.3-3.8 3.4-.7-.7 2.3-.7 2.3.8.3.8-1.1 1.1-2.2.7-2.5-1.3-.8.1-2.4 3.3-3.7 2.3-1.1 2.7-1 2.7.2 0 2 .9 1.9 3.3-.3 1.5-1.2 2.1-1.4 2.4-.5.3.7 1.1 1.3 1.9 1.3.7 0 1.1.6.8 1.3-.3.9.4 1.3 2.3 1.2 2.1 0 2.9-.5 3.1-2.2.2-1.4.9-2.2 2-2 2.6.3 2.6-1.7 0-2.5l-2.3-.6 2.3-.1c1.2-.1 2.5-.8 2.9-1.7.4-1.2.8-1.3 1.3-.3.6.9 1.7.8 4.9-.5 2.3-.9 4.9-1.6 5.8-1.6.9 0 2.1-.8 2.8-1.7 1.1-1.5 1.5-1.6 3.1-.3s1.7 1.3 1.2-.1c-.8-2 .9-3.9 3.3-3.9.9 0 1.9-.7 2.3-1.5.3-.8 1.3-1.5 2.2-1.5.8 0 1.4-.6 1.1-1.3-.2-.7-2.1-1.2-4.5-1.2-3.1 0-3.8.3-3 1.3.6.7.8 1.6.4 1.9-.4.4-1.1.2-1.5-.5-.6-.9-1.2-.7-2.6.8-1 1.1-2.6 2-3.5 2-2.7 0-10.3 2.9-11.2 4.3-.8 1.2-6.8 1.7-6.8.5 0-.4.9-1 2-1.3 1.1-.3 2-1.2 2-1.8 0-.7.4-.6 1 .3.6 1 1 1.1 1 .2 0-.6.7-1.2 1.5-1.2s1.5-.8 1.5-1.8c0-1.2.2-1.4.8-.4.7 1 1.4.8 3.4-.8 1.5-1.1 3.3-2 4.1-2 .9 0 3-.8 4.9-1.7 5.8-2.9 6.5-3.1 10.2-3.8 2-.4 4.2-1.5 4.9-2.4 1.2-1.7 4.3-2.8 3.3-1.2-.3.4.5.8 1.9.8 1.3 0 2.6-.5 2.9-1.2.3-.8 1.3-1.1 2.5-.8 2 .5 8.1-1.6 8.1-2.8 0-.4 1.4-.5 3-.3 2.5.3 3.3-.1 4.2-2.1.6-1.4 1.6-2.5 2.2-2.5.6 0 .5.5-.2 1.2-2.2 2.2-1.2 2.7 2.8 1.3 2.2-.8 4-1.1 4-.8 0 .3.9-.2 1.9-1.1 1.1-1 2-1.3 2.3-.6.2.7 1.8.7 5.3 0 7.2-1.5 10.5-1.7 10.5-.7 0 .4.4.6.9.3s2.6-.8 4.7-1.1c2.2-.3 5.4-.7 7.2-1 1.8-.2 3 0 2.7.4-.3.5-2.9 1.2-5.8 1.6-2.8.4-5.5 1.3-5.9 1.9-.5.8-.8.7-.8-.2 0-.7-.5-1-1-.7-.6.4-3.2.7-5.8.8-3.3 0-5.6.8-7.8 2.4-1.7 1.3-3.7 2.3-4.5 2.3-1.1 0-1.1.2.1 1 1.8 1.1 9.1.6 11.9-1 1.6-.8 1.9-.8 1.5.3-.6 1.7 2.2 3.1 3.9 2 .7-.4 2.3-.6 3.7-.5 1.8.2 2.1 0 1.2-.6-1.1-.7-.9-1 .7-1.5 1.4-.3 1.9-.1 1.4.6-.3.7.3.4 1.4-.6 1.1-.9 2.4-1.7 2.9-1.7s.2.4-.6 1c-.8.5-1.1 1.2-.7 1.6.3.4 1.3.1 2.2-.6.8-.7 2.4-1 3.5-.7 1.1.3 2 .1 2-.4 0-.6 1.9-.9 4.3-.8 2.4.2 4.8-.1 5.5-.5.6-.4 2.1-.2 3.2.4 1.5.8 2 .8 2-.2 0-.9.3-.9 1 .2s.5 1.7-.8 2.2c-1.5.6-1.4.7.3.7 1.1 0 2.7-.4 3.5-.9 1.2-.8 1.2-1 .1-1-.8 0-1.1-.3-.8-.7 1.1-1 7.7-1.4 7.7-.4 0 .5.7 1.2 1.6 1.5.8.3 1.2.2.9-.3-.3-.5-.1-1.2.4-1.5 1.2-.8 4.2.4 3.6 1.4-.2.4 1.3.3 3.5-.1 2.2-.5 5.9-1.3 8.2-1.8 2.3-.5 5.2-.5 6.4-.1 1.2.5 2.5.6 2.8.3.3-.4.6.1.6 1.1 0 .9.6 1.6 1.3 1.5 2.6-.3 4.1.1 3.1.9-.5.5-3.1.7-5.7.4-4.2-.4-4.7-.6-4.1-2.4.4-1.5.2-1.9-.7-1.6-.8.3-1.4 1.3-1.4 2.3 0 1.5-1.1 1.9-6 2.2-3.3.3-6.3 1-6.7 1.6-.4.6-1 .8-1.4.4-.4-.4-1.8 0-3.2.9-1.3.8-2.9 1.3-3.7 1.1-.7-.3-1.8 0-2.5.6-1 .9-1.4.9-1.7-.1-.6-1.5-3.4-1.6-3.1 0 .4 1.4-5.1 2.7-7.7 1.8-1.2-.4-2.7.3-4.7 2.2-1.6 1.5-3.4 2.8-4.1 2.8-2.1 0-13.7 5.9-13.7 7 0 1.3 1.2 1.3 9.5-.6 3.9-.9 9.3-2 12-2.5 2.8-.6 5.9-1.2 7-1.4 1.9-.4 5.1-1 12.3-2.1 2.3-.4 3.2-1 3.2-2.4 0-1.1.3-1.9.8-1.8 1.6.4 9.2-1.4 9.2-2.2 0-.5 1.4-.4 3 .2 1.7.5 3.7.8 4.5.5.9-.4 1.2-.1.9.7-.3.8 0 1.7.7 2.2.7.4 1.5.2 1.7-.4.2-.7.8-1 1.3-.6.5.3.9 0 .9-.5 0-.6.9-1.1 2-1.1s2-.5 2-1c0-.6.3-.9.8-.8.4.1 2-.4 3.5-1 1.6-.7 3.6-1.2 4.5-1.2 1.5 0 1.5.2.2 1s-1.3 1 .1 1c.9 0 2 .8 2.3 1.7 1.2 3.1 2.6-.6 2.6-7 0-5.5-.1-5.7-2.7-5.8-2.5 0-2.5-.1-.8-.8 1.1-.5 2.3-.7 2.8-.4.4.2.7-9.1.7-20.6V0H0v100zm145-58c0 .5-.4 1-1 1-.5 0-1-.5-1-1 0-.6.5-1 1-1 .6 0 1 .4 1 1zm111 4.8c0 .5-.6.9-1.2.9-.7 0-1.7.2-2.3.3-2.3.6-5.6-.1-5-1 .7-1.2 8.5-1.4 8.5-.2zM234.5 54c.3.5.1 1-.4 1-.6 0-1.1-.5-1.1-1 0-.6.2-1 .4-1 .3 0 .8.4 1.1 1zm-36 8c.3.5-.1 1-1 1s-1.3-.5-1-1c.3-.6.8-1 1-1 .2 0 .7.4 1 1zM73.3 72.6c-2.1 1.5-1.7 1.4-6.3 1.9l-3.5.3 3.7-2.1c2.5-1.5 4-3.2 4.4-5.1l.6-2.9 1.4 3.3c1.3 2.9 1.2 3.4-.3 4.6zM88 68.4c0 .2-.7.7-1.6 1-.8.3-1.2.2-.9-.4.6-1 2.5-1.4 2.5-.6zm75.5 50.6c.3.5.1 1-.4 1-.6 0-1.1-.5-1.1-1 0-.6.2-1 .4-1 .3 0 .8.4 1.1 1zm40.3 24.8c.2.7-.2 1-1.2.6-.9-.3-1.6-1.1-1.6-1.6 0-1.3 2.3-.5 2.8 1zM91.1 146c.5 0 .9.6.9 1.4 0 .8.6 1.7 1.3 1.9.6.3.2.6-1 .6-1.2.1-2.3-.5-2.6-1.2-.2-.6-.2-.2 0 1 .2 1.3.2 2.3-.1 2.3-1.2 0-6.9-2.9-5.7-3 .7 0 1.1-.6.7-1.5-.3-.9 0-1.5.9-1.5.8 0 1.5-.7 1.5-1.6 0-1.4.1-1.4 1.6 0 .8.9 2 1.6 2.5 1.6zm86.9.5c0 .9-.6 1.2-1.7.8-1.1-.4-1.3-.8-.5-1.1.7-.2.9-.9.6-1.4-.4-.7-.2-.8.4-.4.7.4 1.2 1.4 1.2 2.1zm-11.5-.5c.3.6-.1.7-.9.4-1.8-.7-2.1-1.4-.7-1.4.6 0 1.3.4 1.6 1zm-17.7 4.5c-.3.3-.9-.2-1.2-1.2-.6-1.4-.5-1.5.5-.6.7.7 1 1.5.7 1.8zm-50.8.6c0 .5-.4.9-.8.9-.5 0-.9-.7-.9-1.5s.4-1.2.9-.9c.4.3.8.9.8 1.5zm128.4 27.4c-.4.8-.8 1.5-1 1.5-.2 0-.4-.7-.4-1.5s.4-1.5 1-1.5c.5 0 .7.7.4 1.5zM27.7 219.2c-.3.7-.5.2-.5-1.2s.2-1.9.5-1.3c.2.7.2 1.9 0 2.5zm89.7-1.7c-.6 1.4-4.4 2.2-4.4 1 0-.4 2.9-1.9 4.7-2.4.1-.1 0 .6-.3 1.4zm8.6 1.1c0 .2-.7.4-1.5.4s-1.5-.4-1.5-1c0-.5.7-.7 1.5-.4.8.4 1.5.8 1.5 1zM15 219c0 .5-.4 1-.9 1-.6 0-1.3-.5-1.6-1-.3-.6.1-1 .9-1 .9 0 1.6.4 1.6 1zm21 1c0 .5-.7.7-1.5.4-.8-.4-1.2-1-.9-1.5.6-1.1 2.4-.2 2.4 1.1zm-10-.1c0 .5-.6 1.1-1.3 1.4-.8.3-1.4-.1-1.4-.9s.6-1.4 1.4-1.4c.7 0 1.3.4 1.3.9zm-7 2.1c0 .5-.8 1-1.7 1-1.5 0-1.6-.2-.3-1 1.9-1.2 2-1.2 2 0z"/><path d="M86.6 148.7c-.6 1.4-.5 1.5.5.6.7-.7 1-1.5.7-1.8-.3-.3-.9.2-1.2 1.2zM150.3 44.5c0 .7.9 1.3 1.9 1.2 1-.1 1.8-.2 1.8-.4 0-.1-.8-.7-1.8-1.2-1.4-.7-1.9-.6-1.9.4zM197 49c-.9.6-1 1-.3 1 .6 0 1.5-.5 1.8-1 .8-1.2.4-1.2-1.5 0zM190.5 50c-.3.5.1 1 1 1s1.3-.5 1-1c-.3-.6-.8-1-1-1-.2 0-.7.4-1 1zM148.5 51.9c-.3.5-.1 1.2.5 1.6 1.2.7 3-.2 3-1.6 0-1.2-2.7-1.2-3.5 0zM155 52c0 .5.7.7 1.5.4.8-.4 1.5-.8 1.5-1 0-.2-.7-.4-1.5-.4s-1.5.4-1.5 1zM121 55.1c0 .5.5.7 1 .4.6-.3 1-.8 1-1.1 0-.2-.4-.4-1-.4-.5 0-1 .5-1 1.1zM116 56.4c0 .8.4 1.7.9 2 .5.4.7-.3.4-1.4-.6-2.3-1.3-2.6-1.3-.6zM110.8 61.7c.7.3 1.6.2 1.9-.1.4-.3-.2-.6-1.3-.5-1.1 0-1.4.3-.6.6zM173.1 67.6c0 1.1.3 1.4.6.6.3-.7.2-1.6-.1-1.9-.3-.4-.6.2-.5 1.3zM163.8 68.7c-3.1.5-6.1 3.3-3.4 3.3.9 0 1.6-.5 1.6-1.1 0-.5.5-.7 1-.4 1.3.8 5-.4 5-1.6 0-.5-.3-.8-.7-.8-.5.1-2 .4-3.5.6zM61.6 83.5c-.8.8-1.9 1.5-2.4 1.5s-1.7 1.2-2.7 2.6c-.9 1.5-1.2 2.3-.6 2 .6-.4 1.1-.2 1.1.4 0 .6 1.8-.4 4-2.2 3.7-3.1 5.2-5.8 3.1-5.8-.5 0-1.6.7-2.5 1.5zM121.5 96c.3.5 1 1 1.6 1 .5 0 .9-.5.9-1 0-.6-.7-1-1.6-1-.8 0-1.2.4-.9 1zM48 102.4c0 .8.5 1.8 1 2.1.6.3 1-.1 1-.9s-.4-1.8-1-2.1c-.5-.3-1 .1-1 .9zM93 113c0 .5.6 1 1.4 1 .8 0 1.8-.5 2.1-1 .3-.6-.3-1-1.4-1-1.2 0-2.1.4-2.1 1zM90.5 115c-.3.5-.1 1 .4 1 .6 0 1.1-.5 1.1-1 0-.6-.2-1-.4-1-.3 0-.8.4-1.1 1zM47 122.4c0 .2.8 1 1.8 1.7 1.5 1.3 1.6 1.2.3-.4s-2.1-2.1-2.1-1.3zM52 123.1c0 .5.5.7 1 .4.6-.3 1-.8 1-1.1 0-.2-.4-.4-1-.4-.5 0-1 .5-1 1.1zM90 123.9c0 .5.5 1.3 1 1.6.6.3 1 .2 1-.4 0-.5-.4-1.3-1-1.6-.5-.3-1-.2-1 .4zM50 126.7c-1.4 1.6-1.1 2.1 2.2 5.1 2.2 2 4.2 3.1 4.9 2.6.7-.4 1.8.1 2.6 1.1 1.6 2.3 1.7 1.4.1-1.9-.6-1.4-2.4-3.1-4-3.8-1.5-.7-2.8-2.1-2.8-3 0-2.3-1.2-2.3-3-.1z"/></svg>